<?xml version="1.0" ?>
<!DOCTYPE svg  PUBLIC '-//W3C//DTD SVG 1.1//EN'  'http://www.w3.org/Graphics/SVG/1.1/DTD/svg11.dtd'>
<svg enable-background="new 0 0 32 32" height="32px" version="1.1" viewBox="0 0 32 32" width="32px" xml:space="preserve" xmlns="http://www.w3.org/2000/svg" xmlns:xlink="http://www.w3.org/1999/xlink">
  <defs>
    <style>.cls-1{fill:#fff;}</style>
  </defs>
  <g>
    <!-- Drone Body -->
    <path class="cls-1" d="M16,16.5c-1.1,0-2-0.9-2-2s0.9-2,2-2s2,0.9,2,2S17.1,16.5,16,16.5z M16,13.5c-0.55,0-1,0.45-1,1s0.45,1,1,1s1-0.45,1-1
      S16.55,13.5,16,13.5z"/>
    <rect class="cls-1" x="14" y="14" width="4" height="5"/>
    
    <!-- Propellers -->
    <g>
      <!-- Top Left Propeller -->
      <path class="cls-1" d="M10,12c-1.1,0-2-0.9-2-2s0.9-2,2-2s2,0.9,2,2S11.1,12,10,12z M10,9c-0.55,0-1,0.45-1,1s0.45,1,1,1s1-0.45,1-1
        S10.55,9,10,9z"/>
      <rect class="cls-1" x="9.5" y="10.5" width="1" height="3.5"/>
      
      <!-- Top Right Propeller -->
      <path class="cls-1" d="M22,12c-1.1,0-2-0.9-2-2s0.9-2,2-2s2,0.9,2,2S23.1,12,22,12z M22,9c-0.55,0-1,0.45-1,1s0.45,1,1,1s1-0.45,1-1
        S22.55,9,22,9z"/>
      <rect class="cls-1" x="21.5" y="10.5" width="1" height="3.5"/>
      
      <!-- Bottom Left Propeller -->
      <path class="cls-1" d="M10,23c-1.1,0-2-0.9-2-2s0.9-2,2-2s2,0.9,2,2S11.1,23,10,23z M10,20c-0.55,0-1,0.45-1,1s0.45,1,1,1s1-0.45,1-1
        S10.55,20,10,20z"/>
      <rect class="cls-1" x="9.5" y="17" width="1" height="3.5"/>
      
      <!-- Bottom Right Propeller -->
      <path class="cls-1" d="M22,23c-1.1,0-2-0.9-2-2s0.9-2,2-2s2,0.9,2,2S23.1,23,22,23z M22,20c-0.55,0-1,0.45-1,1s0.45,1,1,1s1-0.45,1-1
        S22.55,20,22,20z"/>
      <rect class="cls-1" x="21.5" y="17" width="1" height="3.5"/>
    </g>
    
    <!-- Arms connecting body to propellers -->
    <line class="cls-1" x1="14" y1="14.5" x2="10" y2="11" stroke="#FFFFFF" stroke-width="0.75"/>
    <line class="cls-1" x1="18" y1="14.5" x2="22" y2="11" stroke="#FFFFFF" stroke-width="0.75"/>
    <line class="cls-1" x1="14" y1="17.5" x2="10" y2="21" stroke="#FFFFFF" stroke-width="0.75"/>
    <line class="cls-1" x1="18" y1="17.5" x2="22" y2="21" stroke="#FFFFFF" stroke-width="0.75"/>
    
    <!-- Camera Lens -->
    <path class="cls-1" d="M16,25.5c-1.65,0-3-1.35-3-3v-1h6v1C19,24.15,17.65,25.5,16,25.5z M14,22.5v0c0,1.1,0.9,2,2,2s2-0.9,2-2v0H14z"/>
    <circle class="cls-1" cx="16" cy="22" r="1"/>
  </g>
</svg> 